<?xml version="1.0" encoding="UTF-8"?>
<svg height="600" width="800" xmlns="http://www.w3.org/2000/svg" xmlns:xlink="http://www.w3.org/1999/xlink">
    <g id="Notes" font-family="'LucidaGrande', 'Lucida Grande', sans-serif" font-size="13">
        <rect fill="white" height="600.0" width="800.0" x="0.0" y="0.0" />
        <g font-size="13">
            <text x="18.0" y="176.0">Small</text>
            <text x="18.0" y="376.0">Medium</text>
            <text x="18.0" y="576.0">Large</text>
        </g>
        <g font-size="9">
            <text x="250.0" y="30.0">Ultralight</text>
            <text x="450.0" y="30.0">Regular</text>
            <text x="650.0" y="30.0">Black</text>
            <text id="template-version" fill="#505050" text-anchor="end" x="785.0" y="575.0">Template v.3.0</text>
        </g>
    </g>
    <g id="Guides" stroke="rgb(39, 170, 225)" stroke-width="0.5">
        <path id="Capline-S" d="M18,76 l800,0" />
        <path id="H-reference" d="M85,145.755 L87.685,145.755 L113.369,79.287 L114.052,79.287 L114.052,76 L112.148,76 L85,145.755 Z M95.693,121.536 L130.996,121.536 L130.263,119.313 L96.474,119.313 L95.693,121.536 Z M139.15,145.755 L141.787,145.755 L114.638,76 L113.466,76 L113.466,79.287 L139.15,145.755 Z" stroke="none" />
        <path id="Baseline-S" d="M18,146 l800,0" />
        <path id="left-margin-Ultralight-S" d="M221,56 l0,110" />
        <path id="right-margin-Ultralight-S" d="M309,56 l0,110" />
        <path id="left-margin-Regular-S" d="M421,56 l0,110" />
        <path id="right-margin-Regular-S" d="M509,56 l0,110" />
        <path id="left-margin-Black-S" d="M621,56 l0,110" />
        <path id="right-margin-Black-S" d="M709,56 l0,110" />
        <path id="Capline-M" d="M18,276 l800,0" />
        <path id="Baseline-M" d="M18,346 l800,0" />
        <path id="Capline-L" d="M18,476 l800,0" />
        <path id="Baseline-L" d="M18,546 l800,0" />
    </g>

    <g id="Symbols">

        <!-- Ultralight -->
        <g id="Ultralight-S">
            <path d="M261.57,96.578 L261.57,103.438 L240.992,103.438 L240.992,110.297 L275.118,110.297 
                     C273.677,114.172 270.145,118.871 265.549,122.884 
                     C261.982,119.694 259.341,116.539 257.523,113.727 
                     L249.566,113.727 
                     C251.556,118.014 255.157,122.712 260.267,127.308 
                     L246.308,138.489 L243.599,140.615 
                     L247.852,146 L250.595,143.839 
                     L265.583,131.835 
                     L280.605,143.839 L283.28,146 
                     L287.567,140.615 
                     L284.892,138.489 
                     L270.933,127.342 
                     C276.455,122.301 281.12,116.642 282.389,110.297 
                     L289.008,110.297 
                     L289.008,103.438 
                     L268.43,103.438 
                     L268.43,96.578 Z" />
        </g>

        <!-- Regular -->
        <g id="Regular-S">
            <path d="M461.57,96.578 L461.57,103.438 L440.992,103.438 L440.992,110.297 
                     L475.118,110.297 
                     C473.677,114.172 470.145,118.871 465.549,122.884 
                     C461.982,119.694 459.341,116.539 457.523,113.727 
                     L449.566,113.727 
                     C451.556,118.014 455.157,122.712 460.267,127.308 
                     L446.308,138.489 L443.599,140.615 
                     L447.852,146 L450.595,143.839 
                     L465.583,131.835 
                     L480.605,143.839 L483.28,146 
                     L487.567,140.615 
                     L484.892,138.489 
                     L470.933,127.342 
                     C476.455,122.301 481.12,116.642 482.389,110.297 
                     L489.008,110.297 
                     L489.008,103.438 
                     L468.43,103.438 
                     L468.43,96.578 Z" />
        </g>

        <!-- Black -->
        <g id="Black-S">
            <path d="M661.57,96.578 L661.57,103.438 L640.992,103.438 L640.992,110.297 
                     L675.118,110.297 
                     C673.677,114.172 670.145,118.871 665.549,122.884 
                     C661.982,119.694 659.341,116.539 657.523,113.727 
                     L649.566,113.727 
                     C651.556,118.014 655.157,122.712 660.267,127.308 
                     L646.308,138.489 L643.599,140.615 
                     L647.852,146 L650.595,143.839 
                     L665.583,131.835 
                     L680.605,143.839 L683.28,146 
                     L687.567,140.615 
                     L684.892,138.489 
                     L670.933,127.342 
                     C676.455,122.301 681.12,116.642 682.389,110.297 
                     L689.008,110.297 
                     L689.008,103.438 
                     L668.43,103.438 
                     L668.43,96.578 Z" />
        </g>

    </g>
</svg>