<?xml version="1.0" encoding="UTF-8"?>
<svg height="600" width="800" xmlns="http://www.w3.org/2000/svg" xmlns:xlink="http://www.w3.org/1999/xlink">
    <g id="Notes" font-family="'LucidaGrande', 'Lucida Grande', sans-serif" font-size="13">
        <rect fill="white" height="600.0" width="800.0" x="0.0" y="0.0" />
        <g font-size="13">
            <text x="18.0" y="176.0">Small</text>
            <text x="18.0" y="376.0">Medium</text>
            <text x="18.0" y="576.0">Large</text>
        </g>
        <g font-size="9">
            <text x="250.0" y="30.0">Ultralight</text>
            <text x="450.0" y="30.0">Regular</text>
            <text x="650.0" y="30.0">Black</text>
            <text id="template-version" fill="#505050" text-anchor="end" x="785.0" y="575.0">Template v.3.0</text>
            <a href="https://wangchujiang.com/#/app">
                <text fill="#505050" text-anchor="end" x="785.0" y="590.0">https://wangchujiang.com/#/app</text>
            </a>
        </g>
    </g>
    <g id="Guides" stroke="rgb(39, 170, 225)" stroke-width="0.5">
        <path id="Capline-S" d="M18,76 l800,0" />
        <path id="H-reference" d="M85,145.755 L87.685,145.755 L113.369,79.287 L114.052,79.287 L114.052,76 L112.148,76 L85,145.755 Z M95.693,121.536 L130.996,121.536 L130.263,119.313 L96.474,119.313 L95.693,121.536 Z M139.15,145.755 L141.787,145.755 L114.638,76 L113.466,76 L113.466,79.287 L139.15,145.755 Z" stroke="none" />
        <path id="Baseline-S" d="M18,146 l800,0" />
        <path id="left-margin-Ultralight-S" d="M221,56 l0,110" />
        <path id="right-margin-Ultralight-S" d="M309,56 l0,110" />
        <path id="left-margin-Regular-S" d="M421,56 l0,110" />
        <path id="right-margin-Regular-S" d="M509,56 l0,110" />
        <path id="left-margin-Black-S" d="M621,56 l0,110" />
        <path id="right-margin-Black-S" d="M709,56 l0,110" />
        <path id="Capline-M" d="M18,276 l800,0" />
        <path id="Baseline-M" d="M18,346 l800,0" />
        <path id="Capline-L" d="M18,476 l800,0" />
        <path id="Baseline-L" d="M18,546 l800,0" />
    </g>
    <g id="Symbols">
        <g id="Ultralight-S">
            <path d="M252.996,76 C248.261,76 244.422,79.839 244.422,84.574 C244.422,89.31 248.261,93.148 252.996,93.148 C257.732,93.148 261.57,89.31 261.57,84.574 C261.57,79.839 257.732,76 252.996,76 M277.004,76 C272.268,76 268.43,79.839 268.43,84.574 C268.43,89.31 272.268,93.148 277.004,93.148 C281.739,93.148 285.578,89.31 285.578,84.574 C285.578,79.839 281.739,76 277.004,76 M261.57,96.578 L261.57,103.438 L240.992,103.438 L240.992,110.297 L275.118,110.297 C273.677,114.172 270.145,118.871 265.549,122.884 C261.982,119.694 259.341,116.539 257.523,113.727 L249.566,113.727 C251.556,118.014 255.157,122.712 260.267,127.308 L246.308,138.489 L243.599,140.615 L247.852,146 L250.595,143.839 L265.583,131.835 L280.605,143.839 L283.28,146 L287.567,140.615 L284.892,138.489 L270.933,127.342 C276.455,122.301 281.12,116.642 282.389,110.297 L289.008,110.297 L289.008,103.438 L268.43,103.438 L268.43,96.578 Z" />
        </g>
        <g id="Regular-S">
            <path d="M452.996,76 C448.261,76 444.422,79.839 444.422,84.574 C444.422,89.31 448.261,93.148 452.996,93.148 C457.731,93.148 461.57,89.31 461.57,84.574 C461.57,79.839 457.731,76 452.996,76 M477.004,76 C472.268,76 468.43,79.839 468.43,84.574 C468.43,89.31 472.268,93.148 477.004,93.148 C481.739,93.148 485.578,89.31 485.578,84.574 C485.578,79.839 481.739,76 477.004,76 M461.57,96.578 L461.57,103.438 L440.992,103.438 L440.992,110.297 L475.118,110.297 C473.677,114.172 470.145,118.871 465.549,122.884 C461.982,119.694 459.341,116.539 457.523,113.727 L449.566,113.727 C451.556,118.014 455.157,122.712 460.267,127.308 L446.308,138.489 L443.599,140.615 L447.852,146 L450.595,143.839 L465.583,131.835 L480.605,143.839 L483.28,146 L487.567,140.615 L484.892,138.489 L470.933,127.342 C476.455,122.301 481.12,116.642 482.389,110.297 L489.008,110.297 L489.008,103.438 L468.43,103.438 L468.43,96.578 Z" />
        </g>
        <g id="Black-S">
            <path d="M652.996,76 C648.261,76 644.422,79.839 644.422,84.574 C644.422,89.31 648.261,93.148 652.996,93.148 C657.732,93.148 661.57,89.31 661.57,84.574 C661.57,79.839 657.732,76 652.996,76 M677.004,76 C672.268,76 668.43,79.839 668.43,84.574 C668.43,89.31 672.268,93.148 677.004,93.148 C681.739,93.148 685.578,89.31 685.578,84.574 C685.578,79.839 681.739,76 677.004,76 M661.57,96.578 L661.57,103.438 L640.992,103.438 L640.992,110.297 L675.118,110.297 C673.677,114.172 670.145,118.871 665.549,122.884 C661.982,119.694 659.341,116.539 657.523,113.727 L649.566,113.727 C651.556,118.014 655.157,122.712 660.267,127.308 L646.308,138.489 L643.599,140.615 L647.852,146 L650.595,143.839 L665.583,131.835 L680.605,143.839 L683.28,146 L687.567,140.615 L684.892,138.489 L670.933,127.342 C676.455,122.301 681.12,116.642 682.389,110.297 L689.008,110.297 L689.008,103.438 L668.43,103.438 L668.43,96.578 Z" />
        </g>
    </g>
</svg>